# xmcd
#
# Track frame offsets:
#	150
#	22480
#	42325
#	63400
#	78015
#	97929
#	113425
#	134655
#	154022
#	176950
#	194342
#	220780
#	222607
#	235762
#
# Disc length: 3409 seconds
#
# Revision: 1
# Processed by: cddbd v1.5.2PL0 Copyright (c) Steve Scherf et al.
# Submitted via: audiograbber 1.83.01
#
DISCID=c70d4f0e
DTITLE=George Nussbaumer - It's Crazy But I Do
DYEAR=1900
DGENRE=Pop
TTITLE0=My House, My Rules
TTITLE1=Music Makes Me High
TTITLE2=The Love Within
TTITLE3=You Have'nt Done Nothing
TTITLE4=I Want Love Back
TTITLE5=When The Clouds Roll In
TTITLE6=Surfing In The Sky
TTITLE7=Nice Price
TTITLE8=Strong
TTITLE9=La Force Du Silence
TTITLE10=It's Crazy But I Do
TTITLE11=George
TTITLE12=that You Feel Good
TTITLE13=Weil's Dr Guat Got
EXTD=
EXTT0=
EXTT1=
EXTT2=
EXTT3=
EXTT4=
EXTT5=
EXTT6=
EXTT7=
EXTT8=
EXTT9=
EXTT10=
EXTT11=
EXTT12=
EXTT13=
PLAYORDER=
